<?xml version="1.0" encoding="utf-8"?>
<!-- Generator: Adobe Illustrator 19.1.0, SVG Export Plug-In . SVG Version: 6.00 Build 0)  -->
<svg version="1.1" id="Layer_1" xmlns="http://www.w3.org/2000/svg" xmlns:xlink="http://www.w3.org/1999/xlink" x="0px" y="0px"
	 viewBox="0 0 100 100" style="enable-background:new 0 0 100 100;" xml:space="preserve">
<style type="text/css">
	.st0{fill:#1853A3;stroke:#000000;stroke-width:2;stroke-miterlimit:10;}
	.st1{fill:#3582BA;}
</style>
<path class="st0" d="M79.4,81.5H21.1C4.2,81.5-9.5,67.8-9.5,50.9v0c0-16.9,13.7-30.6,30.6-30.6h58.3C96.3,20.3,110,34,110,50.9v0
	C110,67.8,96.3,81.5,79.4,81.5z"/>
<path class="st1" d="M21.1,76.9L21.1,76.9c-14.3,0-26-11.7-26-26v0c0-14.3,11.7-26,26-26h0c14.3,0,26,11.7,26,26v0
	C47.1,65.2,35.4,76.9,21.1,76.9z"/>
</svg>
